<svg width="41" height="41" viewBox="0 0 41 41" fill="none" xmlns="http://www.w3.org/2000/svg">
<rect width="41" height="41" rx="20.5" fill="#B08D57"/>
<path d="M17.3902 24.6031L27.6308 14.3625C27.8725 14.1208 28.1545 14 28.4767 14C28.7989 14 29.0808 14.1208 29.3225 14.3625C29.5642 14.6042 29.685 14.8913 29.685 15.224C29.685 15.5567 29.5642 15.8435 29.3225 16.0844L18.2361 27.201C17.9944 27.4427 17.7124 27.5635 17.3902 27.5635C17.068 27.5635 16.7861 27.4427 16.5444 27.201L11.3486 22.0052C11.1069 21.7635 10.9909 21.4768 11.0006 21.1449C11.0102 20.813 11.1363 20.5258 11.3788 20.2833C11.6212 20.0409 11.9084 19.92 12.2403 19.9208C12.5722 19.9216 12.859 20.0425 13.1006 20.2833L17.3902 24.6031Z" fill="white"/>
</svg>
